<svg width="650" height="450" xmlns="http://www.w3.org/2000/svg">
  <defs>
    <style>
      .title { font-family: Arial, sans-serif; font-size: 18px; font-weight: bold; fill: #2c3e50; }
      .header { font-family: Arial, sans-serif; font-size: 14px; font-weight: bold; fill: #34495e; }
      .text { font-family: Arial, sans-serif; font-size: 12px; fill: #2c3e50; }
      .highlight { font-family: Arial, sans-serif; font-size: 12px; font-weight: bold; fill: #e74c3c; }
      .stats { font-family: Arial, sans-serif; font-size: 11px; fill: #7f8c8d; }
      .border { fill: none; stroke: #bdc3c7; stroke-width: 2; }
    </style>
  </defs>
  
  <!-- Background -->
  <rect width="650" height="450" fill="#ecf0f1" rx="10"/>
  <rect x="10" y="10" width="630" height="430" class="border" rx="8"/>
  
  <!-- Header -->
  <text x="325" y="35" text-anchor="middle" class="title">ANÁLISE DO ARTISTA: LINKIN PARK</text>
  <line x1="50" y1="45" x2="600" y2="45" stroke="#34495e" stroke-width="1"/>
  
  <!-- Statistics -->
  <text x="30" y="75" class="header">Total de músicas analisadas:</text>
  <text x="250" y="75" class="highlight">15</text>
  
  <text x="30" y="100" class="header">Sentimento predominante:</text>
  <text x="220" y="100" class="highlight">TRISTEZA</text>
  
  <text x="30" y="125" class="header">Pontuação média:</text>
  <text x="150" y="125" class="text">0.673</text>
  
  <!-- Sentiment Distribution -->
  <text x="30" y="160" class="header">Distribuição de Sentimentos:</text>
  
  <!-- Chart bars -->
  <text x="30" y="185" class="text">Tristeza:</text>
  <rect x="100" y="175" width="160" height="15" fill="#3498db" rx="2"/>
  <text x="270" y="187" class="text">8 músicas (53.3%)</text>
  
  <text x="30" y="210" class="text">Raiva:</text>
  <rect x="100" y="200" width="80" height="15" fill="#e74c3c" rx="2"/>
  <text x="190" y="212" class="text">4 músicas (26.7%)</text>
  
  <text x="30" y="235" class="text">Esperança:</text>
  <rect x="100" y="225" width="40" height="15" fill="#2ecc71" rx="2"/>
  <text x="150" y="237" class="text">2 músicas (13.3%)</text>
  
  <text x="30" y="260" class="text">Nostalgia:</text>
  <rect x="100" y="250" width="20" height="15" fill="#9b59b6" rx="2"/>
  <text x="130" y="262" class="text">1 música (6.7%)</text>
  
  <!-- Top Songs -->
  <text x="30" y="295" class="header">Músicas Destacadas:</text>
  
  <text x="30" y="320" class="text">Música mais triste:</text>
  <text x="170" y="320" class="highlight">Heavy (0.912)</text>
  
  <text x="30" y="340" class="text">Música mais feliz:</text>
  <text x="170" y="340" class="highlight">What I've Done (0.234)</text>
  
  <!-- Recent Analysis -->
  <text x="30" y="375" class="header">Últimas análises:</text>
  
  <text x="50" y="395" class="stats">• Numb - tristeza (0.847)</text>
  <text x="50" y="410" class="stats">• In the End - nostalgia (0.756)</text>
  <text x="50" y="425" class="stats">• Crawling - tristeza (0.823)</text>
  
  <!-- Decorative elements -->
  <rect x="350" y="180" width="250" height="180" fill="#f8f9fa" stroke="#dee2e6" rx="5"/>
  <text x="475" y="200" text-anchor="middle" class="header">Perfil Emocional</text>
  
  <!-- Emotion pie chart representation -->
  <circle cx="475" cy="270" r="60" fill="#3498db" opacity="0.7"/>
  <path d="M 475 270 L 475 210 A 60 60 0 0 1 515 230 Z" fill="#e74c3c" opacity="0.8"/>
  <path d="M 475 270 L 515 230 A 60 60 0 0 1 525 250 Z" fill="#2ecc71" opacity="0.8"/>
  <path d="M 475 270 L 525 250 A 60 60 0 0 1 530 260 Z" fill="#9b59b6" opacity="0.8"/>
  
  <text x="475" y="350" text-anchor="middle" class="stats">Perfil: Melancólico</text>
</svg>