<svg width="650" height="500" xmlns="http://www.w3.org/2000/svg">
  <defs>
    <style>
      .title { font-family: 'Courier New', monospace; font-size: 16px; font-weight: bold; fill: #ffffff; }
      .json-key { font-family: 'Courier New', monospace; font-size: 12px; fill: #79c0ff; font-weight: 600; }
      .json-string { font-family: 'Courier New', monospace; font-size: 12px; fill: #a5d6ff; }
      .json-number { font-family: 'Courier New', monospace; font-size: 12px; fill: #ffa657; }
      .json-bool { font-family: 'Courier New', monospace; font-size: 12px; fill: #79c0ff; }
      .json-bracket { font-family: 'Courier New', monospace; font-size: 12px; fill: #f0f6fc; font-weight: bold; }
    </style>
  </defs>
  
  <!-- Background -->
  <rect width="650" height="500" fill="#0d1117" stroke="#30363d" stroke-width="2" rx="8"/>
  <rect x="15" y="15" width="620" height="470" fill="#161b22" stroke="#21262d" stroke-width="1" rx="6"/>
  
  <!-- Header -->
  <text x="325" y="35" text-anchor="middle" class="title">Saída JSON - MusicMood Analyzer</text>
  
  <!-- JSON Content -->
  <text x="30" y="65" class="json-bracket">{</text>
  
  <text x="50" y="85" class="json-key">"id":</text>
  <text x="90" y="85" class="json-number">3,</text>
  
  <text x="50" y="105" class="json-key">"titulo":</text>
  <text x="120" y="105" class="json-string">"Numb",</text>
  
  <text x="50" y="125" class="json-key">"artista":</text>
  <text x="120" y="125" class="json-string">"Linkin Park",</text>
  
  <text x="50" y="145" class="json-key">"letra_encontrada":</text>
  <text x="190" y="145" class="json-bool">true,</text>
  
  <text x="50" y="165" class="json-key">"sentimento_primario":</text>
  <text x="210" y="165" class="json-string">"tristeza",</text>
  
  <text x="50" y="185" class="json-key">"sentimento_secundario":</text>
  <text x="220" y="185" class="json-string">"raiva",</text>
  
  <text x="50" y="205" class="json-key">"pontuacao_sentimento":</text>
  <text x="230" y="205" class="json-number">0.234,</text>
  
  <text x="50" y="225" class="json-key">"confianca":</text>
  <text x="140" y="225" class="json-number">0.452,</text>
  
  <text x="50" y="245" class="json-key">"palavras_chave":</text>
  <text x="170" y="245" class="json-bracket">[</text>
  <text x="180" y="265" class="json-string">"sad", "cry", "tears", "pain", "hurt"</text>
  <text x="50" y="285" class="json-bracket">],</text>
  
  <text x="50" y="305" class="json-key">"emocoes_detectadas":</text>
  <text x="210" y="305" class="json-bracket">{</text>
  
  <text x="70" y="325" class="json-key">"tristeza":</text>
  <text x="150" y="325" class="json-number">60.234,</text>
  
  <text x="70" y="345" class="json-key">"raiva":</text>
  <text x="130" y="345" class="json-number">46.154,</text>
  
  <text x="70" y="365" class="json-key">"felicidade":</text>
  <text x="170" y="365" class="json-number">12.456,</text>
  
  <text x="70" y="385" class="json-key">"medo":</text>
  <text x="120" y="385" class="json-number">49.301,</text>
  
  <text x="70" y="405" class="json-key">"esperanca":</text>
  <text x="150" y="405" class="json-number">38.462,</text>
  
  <text x="70" y="425" class="json-key">"nostalgia":</text>
  <text x="150" y="425" class="json-number">25.123</text>
  
  <text x="50" y="445" class="json-bracket">},</text>
  
  <text x="50" y="465" class="json-key">"resumo":</text>
  <text x="120" y="465" class="json-string">"Tristeza (23.4%) - Confiança moderada"</text>
  
  <text x="30" y="485" class="json-bracket">}</text>
</svg>